# xmcd
#
# Track frame offsets: 
#        150
#        15905
#        30460
#        45882
#        61802
#        78187
#        93505
#        108820
#        124010
#        139387
#        154262
#        168965
#        184640
#        196835
#        210165
#        222932
#        237732
#        253697
#        267797
#        281252
#        293712
#        306837
#        319510
#
# Disc length: 4443 seconds
#
# Revision: 0
# Processed by: cddbd v1.5.2PL0 Copyright (c) Steve Scherf et al.
# Submitted via: ExactAudioCopyFreeDBPlugin 1.0
#
DISCID=2c115917
DTITLE=Walter Davis - Complete Recordings Vol. 4 (1938-1939)
DYEAR=1994
DGENRE=Blues
TTITLE0=Just Tell Me Your Trouble
TTITLE1=Call Me Anytime
TTITLE2=I Like the Way You Spread Your Wings
TTITLE3=Cuttin' Off My Days
TTITLE4=You Don't Know Right from Wrong
TTITLE5=Bad Luck and Trouble
TTITLE6=Smoky Mountain
TTITLE7=Your Time Is Comin'
TTITLE8=Everything Is O. K.
TTITLE9=Troubled and Weary
TTITLE10=Early This Mornin'
TTITLE11=Mercy Blues
TTITLE12=Corinne
TTITLE13=New Orleans
TTITLE14=Big Four Blues
TTITLE15=Airplane Blues
TTITLE16=Let Me in Your Saddle
TTITLE17=Green and Lucky
TTITLE18=I Love You More and More
TTITLE19=Bachelor Blues
TTITLE20=Just Another Day
TTITLE21=Froggy Bottom
TTITLE22=Down and Out
EXTD=
EXTT0=
EXTT1=
EXTT2=
EXTT3=
EXTT4=
EXTT5=
EXTT6=
EXTT7=
EXTT8=
EXTT9=
EXTT10=
EXTT11=
EXTT12=
EXTT13=
EXTT14=
EXTT15=
EXTT16=
EXTT17=
EXTT18=
EXTT19=
EXTT20=
EXTT21=
EXTT22=
PLAYORDER=
